<?xml version="1.0" encoding="utf-8"?>
<!-- Generator: Adobe Illustrator 22.0.1, SVG Export Plug-In . SVG Version: 6.00 Build 0)  -->
<svg version="1.1" id="Camada_1" xmlns="http://www.w3.org/2000/svg" xmlns:xlink="http://www.w3.org/1999/xlink" x="0px" y="0px"
	 viewBox="0 0 192 192" style="enable-background:new 0 0 192 192;" xml:space="preserve">
<g>
	<path d="M116.1,85c21.2,0,42.4,0,63.6,0c7.7,0,12.3,4.5,12.3,12.2c0,24.1,0,48.1,0,72.2c0,7.5-4.6,12.1-12.1,12.1
		c-42.6,0-85.2,0-127.8,0c-7.4,0-12.1-4.6-12.1-12c0-24.2,0-48.3,0-72.5c0-7.4,4.7-12,12.1-12C73.5,85,94.8,85,116.1,85z
		 M162.6,144.8c3.4,0,6.9,0,10.3,0c0.1,0,0.2,0,0.3,0c4.3-0.1,7.5-3.1,7.6-7.5c0.1-2.8,0.1-5.5,0-8.3c-0.2-4.1-3.2-7.2-7.3-7.3
		c-7.3-0.1-14.6-0.1-21.8,0c-4.1,0.1-7.1,3.3-7.2,7.5c0,2.6,0,5.1,0,7.7c0,4.7,3.1,7.8,7.8,7.9C155.8,144.8,159.2,144.8,162.6,144.8
		z M155.6,162.7c8.4,0,16.8,0,25.2,0c0-1.8,0-3.4,0-5.1c-8.4,0-16.8,0-25.2,0C155.6,159.3,155.6,161,155.6,162.7z M120.8,162.7
		c8.4,0,16.8,0,25.2,0c0-1.8,0-3.4,0-5.1c-8.4,0-16.8,0-25.2,0C120.8,159.4,120.8,161,120.8,162.7z M86.1,162.7c8.4,0,16.7,0,25.2,0
		c0-1.8,0-3.4,0-5.1c-8.4,0-16.8,0-25.2,0C86.1,159.3,86.1,161,86.1,162.7z M76.5,157.6c-8.4,0-16.7,0-25.1,0c0,1.8,0,3.4,0,5.2
		c8.4,0,16.7,0,25.1,0C76.5,161,76.5,159.3,76.5,157.6z"/>
	<path d="M34.7,137.1c-6.9,2.4-13.4-0.8-15.2-7.6C15.4,114.3,11.3,99,7.2,83.7c-0.1-0.2-0.1-0.5-0.2-0.9
		c48.9-13.1,97.7-26.2,146.7-39.3c3.2,12,6.4,24,9.7,36.1c-0.8,0-1.4,0-2,0c-36.4,0-72.8,0-109.2,0c-10.6,0-17.6,7-17.6,17.6
		c0,12.7,0,25.4,0,38C34.7,135.8,34.7,136.4,34.7,137.1z"/>
	<path d="M149,26c-49,13.1-97.8,26.2-146.9,39.3C1.4,62,0.3,58.9,0,55.6c-0.5-5.4,3.1-9.9,8.6-11.4c12.7-3.4,25.4-6.8,38-10.2
		c28.6-7.7,57.1-15.3,85.7-23c7.4-2,13,1.3,15,8.7C147.9,21.8,148.4,23.7,149,26z"/>
</g>
</svg>
