<?xml version="1.0" encoding="utf-8"?>
<!-- Generator: Adobe Illustrator 22.0.1, SVG Export Plug-In . SVG Version: 6.00 Build 0)  -->
<svg version="1.1" id="Camada_1" xmlns="http://www.w3.org/2000/svg" xmlns:xlink="http://www.w3.org/1999/xlink" x="0px" y="0px"
	 viewBox="0 0 192 192" style="enable-background:new 0 0 192 192;" xml:space="preserve">
<g>
	<path d="M170.9,49.5c-6.4,6.4-12.4,12.4-18.4,18.4c-14.3,14.3-28.6,28.6-42.9,42.8c-1.3,1.3-1.8,1.3-3.1,0
		C95.1,99.2,83.5,87.7,72,76.1c-1.7-1.7-2-1.7-3.7,0C50.7,93.8,33.1,111.4,15.5,129c-1.6,1.6-1.7,1.6-3.2,0
		c-3.6-3.6-7.2-7.2-10.8-10.8c-1.4-1.4-1.4-1.6,0-3C23.2,93.4,44.9,71.7,66.7,50c0.7-0.7,1.3-1.3,2-2c1.3-1.3,1.8-1.3,3.1,0
		c5.6,5.6,11.2,11.2,16.8,16.8c6.1,6.1,12.1,12.1,18.2,18.1c1.3,1.3,1.8,1.3,3.1,0c15.4-15.4,30.8-30.8,46.3-46.3
		c0.3-0.3,0.5-0.5,0.8-0.9c-3.1-3.1-6.2-6.1-9.2-9.2c-0.7-0.7-1.9-1.3-1.5-2.6c0.4-1.4,1.8-1.2,2.8-1.4c13.4-2.5,26.8-5,40.3-7.5
		c2.1-0.4,2.8,0.2,2.4,2.4c-2.6,13.8-5.1,27.6-7.7,41.3c-0.1,0.6-0.6,1.5-1,1.6c-0.5,0.1-1.4-0.2-1.9-0.7c-3-2.9-6-5.9-8.9-8.9
		C171.5,50.5,171.3,50,170.9,49.5z"/>
	<path d="M170.4,177c-7.4,0-14.8,0-22.2,0c0-0.6,0-1.1,0-1.6c0-27.7,0-55.4,0-83.1c0-1.5,0.5-2.6,1.5-3.6
		c6.2-6.1,12.3-12.3,18.5-18.4c0.4-0.4,1.1-0.6,1.7-0.9c0.2,0.6,0.6,1.2,0.6,1.8c0,34.8,0,69.6,0,104.4
		C170.5,176,170.5,176.5,170.4,177z"/>
	<path d="M70.1,177c-7.5,0-14.8,0-22.2,0c0-0.5-0.1-1-0.1-1.4c0-19.7,0-39.5,0-59.2c0-1.2,0.4-2.1,1.2-2.9
		c6.3-6.3,12.6-12.6,18.9-18.8c0.4-0.4,1.1-0.5,1.7-0.8c0.2,0.6,0.5,1.2,0.5,1.7c0,26.7,0,53.4,0,80.2
		C70.1,176.1,70.1,176.5,70.1,177z"/>
	<path d="M137,177c-7.5,0-14.8,0-22.2,0c0-0.5-0.1-1.1-0.1-1.6c0-16.6,0-33.2,0-49.8c0-1.3,0.4-2.3,1.3-3.2
		c6.2-6.2,12.4-12.4,18.7-18.6c0.2-0.2,0.4-0.5,0.7-0.7c0.8-0.6,1.5-0.3,1.7,0.7c0.1,0.4,0,0.7,0,1.1c0,23.5,0,46.9,0,70.4
		C137,175.8,137,176.4,137,177z"/>
	<path d="M103.4,177c-7.4,0-14.7,0-22.2,0c0-0.5,0-1,0-1.5c0-22.9,0-45.8,0-68.7c0-0.4,0-0.7,0-1.1c0.2-1,0.9-1.3,1.7-0.6
		c0.2,0.2,0.4,0.4,0.6,0.6c6.3,6.3,12.5,12.6,18.8,18.8c0.8,0.8,1.2,1.5,1.2,2.7c0,16.2,0,32.5,0,48.7
		C103.5,176.1,103.5,176.5,103.4,177z"/>
	<path d="M36.6,177c-7.5,0-14.8,0-22.2,0c0-0.5-0.1-0.9-0.1-1.4c0-8.6,0-17.2,0-25.8c0-1.1,0.3-2,1.1-2.8
		c6.3-6.3,12.6-12.6,18.9-18.9c0.3-0.3,0.8-0.7,1.2-0.8c0.3,0,0.7,0.4,1,0.7c0.2,0.2,0.1,0.6,0.1,0.9c0,15.5,0,31.1,0,46.6
		C36.6,176,36.6,176.4,36.6,177z"/>
</g>
</svg>
