<?xml version="1.0" encoding="utf-8"?>
<!-- Generator: Adobe Illustrator 22.0.1, SVG Export Plug-In . SVG Version: 6.00 Build 0)  -->
<svg version="1.1" id="Camada_1" xmlns="http://www.w3.org/2000/svg" xmlns:xlink="http://www.w3.org/1999/xlink" x="0px" y="0px"
	 viewBox="0 0 250 250" style="enable-background:new 0 0 250 250;" xml:space="preserve">
<g>
	<path d="M212.9,58.2c0,10.5,0,37.2,0,66c0,25.9,0.1,51.3,0,69.2c0,5.8-0.1,5.5,0,6.8c0.3,15.3,0.1,20.2,0,28.7
		c0,2.5-1.7,4.3-3.5,5.9c-3.3,2.8-7.3,4.5-11.4,5.8c-4.3,1.3-8.6,2.5-13,3.5c-3.8,0.9-7.6,1.4-11.4,2c-11.9,1.8-23.9,2.7-36,3.1
		c-10.9,0.4-21.8,0.3-32.7-0.4c-4.5-0.3-9-0.5-13.5-0.9c-3.5-0.3-7-0.7-10.5-1.2c-5.1-0.7-10.1-1.4-15.1-2.4
		c-7.5-1.6-15-3.4-21.8-7.3c-2.8-1.6-5.4-3.6-6.4-7c-0.2-0.8-0.2-1.4-0.3-1.7c-0.3-5.3-0.1-20.5,0-25.2c0-4.1,0-8.2,0-12.3
		c0-56.2,0-112.5-0.1-168.7c0-4.3,1.9-7.1,5.2-9.3c4.1-2.6,8.7-4.2,13.5-5.4c4.6-1.1,9.3-2.1,13.9-3c8.5-1.5,17.1-2.3,25.8-3
		c13.2-1,26.5-1.4,39.8-1c7.3,0.2,14.5,0.7,21.8,1.3c5.5,0.4,10.9,1,16.4,1.6c3.8,0.5,7.7,1.1,11.4,1.9c5.1,1.1,10.1,2.4,15,3.9
		c4.2,1.3,8.2,3.1,11.1,6.5c1.2,1.4,1.8,3,1.8,4.9c0,17.3,0.1,26,0,28.3C212.8,52.1,212.9,55.2,212.9,58.2z M42.9,160.2
		c0.1,1,0,3.6,2,5c1.3,0.9,2.7,1.7,4.1,2.3c4.5,1.9,9.2,3.2,14,4.1c5.5,1,11,1.9,16.5,2.6c6.5,0.8,13.1,1.4,19.7,1.8
		c6.8,0.4,13.6,0.7,20.4,0.7c9.3,0,18.5-0.3,27.8-0.6c4.9-0.2,9.8-0.7,14.7-1.2c4.6-0.5,9.1-1,13.7-1.7c3.4-0.5,6.9-1.3,10.3-1.9
		c5.8-1.2,11.4-2.7,16.8-5.2c3-1.4,4.5-3.5,4.4-6.9c-0.1-8.7-0.1-17.4-0.1-26.1c0-14.4,0-28.7,0-43.1c0-0.5,0-1,0-1.5
		c-2.2,1-4.2,2.1-6.2,2.9c-5.5,2.1-11.3,3.6-17.1,4.5c-6.2,1-12.4,2.1-18.7,2.7c-9.3,0.9-18.6,1.5-27.9,1.8
		c-18.9,0.7-37.8,0.1-56.6-2.1c-6.3-0.7-12.5-1.8-18.8-2.9c-5.3-1-10.5-2.4-15.4-4.7c-1.1-0.5-2.2-1.1-3.5-1.8c0,3.2,0,6.2,0,9.2
		c0,3,0,6,0,9c0,3.1,0,6.1,0,9.2c0,5.5,0,8.2,0,9C42.8,133.1,42,151.4,42.9,160.2z M207.1,183.2c-0.4,0.2-0.6,0.2-0.8,0.4
		c-5,2.9-10.4,4.5-15.9,5.7c-5.9,1.3-12,2.3-18,3.1c-6.4,0.9-12.8,1.6-19.3,2c-9.5,0.5-19,0.9-28.5,1c-13.7,0.2-27.3-0.5-40.9-2
		c0,0-7-0.7-16.3-2.2c-3.6-0.6-7.6-1.3-12.3-2.7c-3-0.9-5.3-1.7-7.2-2.5c-1.7-0.6-3.3-1.5-5-2.3c0,0.5,0,1,0,1.4c0,5.6,0,9.5,0,14.3
		c0,6.2,0,9.4,0,9.5c-0.3,6.2,0,12.4-0.1,18.6c0,1.3,0.3,2.3,1.4,3c1.5,1,3,2.1,4.6,2.8c4.5,2.1,9.2,3.6,14.1,4.5
		c5.8,1.1,11.5,2.4,17.4,3.2c6.6,0.9,13.2,1.5,19.9,1.9c8.6,0.5,17.2,0.8,25.8,0.8c8.1,0,16.3-0.4,24.4-0.9c6.5-0.4,13-1.1,19.5-1.9
		c5.4-0.7,10.7-1.8,16.1-2.9c3.3-0.7,6.5-1.6,9.7-2.7c3.3-1.1,6.5-2.3,9.3-4.3c0.8-0.6,1.4-1.2,1.7-1.9c0.5-1,0.4-1.9,0.4-2.1
		C207.1,225.3,207.1,207.6,207.1,183.2z M42.9,28.3c0,0.7,0,1.2,0,1.7c0,10.4,0,20.8,0,31.2c0,1.9,0,3.8,0,5.7
		c0,1.4,0.7,2.5,1.8,3.1c2.6,1.3,5.2,2.7,7.9,3.6c6.1,2,12.4,3.3,18.7,4.2c5.2,0.7,10.5,1.4,15.7,1.8c6.5,0.6,13,1.2,19.5,1.3
		c9.2,0.2,18.5,0.3,27.7,0.1c5.1-0.1,5.3-0.2,28.2-1.6c0,0,31.5-1.9,41.9-10.1c0.3-0.2,0.8-0.6,1.3-1.2c2.3-2.9,1.7-6.4,1.4-12.6
		c-0.1-1.5,0-3.4,0-7.2c0-6.2,0-12.4,0-18.6c0-0.5,0-0.9-0.1-1.5c-1,0.5-1.7,1-2.5,1.4c-6.3,2.9-13,4.6-19.8,5.8
		c-5.4,1-10.8,1.8-16.3,2.3c-8,0.8-15.9,1.6-23.9,2c-14.6,0.7-29.1,0.7-43.7-0.3c-9.7-0.6-19.3-1.4-28.9-3
		c-4.6-0.8-9.3-1.6-13.9-2.7C53,32.7,47.8,31.2,42.9,28.3z M92.8,33.5c0-0.7,0-1.1,0-1.6c0-3.5,0.1-7,0-10.5c-0.1-1.9,0.7-3.2,2.2-4
		c1.8-0.9,3.7-1.9,5.7-2.2c4.1-0.8,8.3-1.3,12.4-1.6c8.7-0.7,17.4-0.5,26.1,0.5c3.5,0.4,7.1,1,10.4,2.5c3.3,1.5,3.8,2.9,3.8,5.5
		c-0.1,3.5,0,7,0,10.5c0,0.9,0.3,1.2,1.2,1.1c5.3-0.6,10.5-1,15.8-1.7c5.1-0.7,10.2-1.5,15.3-2.5c4.4-0.9,8.7-2.1,12.9-3.5
		c2.5-0.8,5-2.1,7.3-3.6c2.1-1.3,2.1-2.7,0-4.1c-1.9-1.3-4-2.5-6.2-3.2c-5.1-1.6-10.2-3.1-15.4-4.1c-5.6-1.2-11.4-2-17.1-2.6
		c-6.7-0.8-13.4-1.5-20.2-1.8c-9.8-0.4-19.6-0.5-29.4-0.4c-8,0.1-15.9,0.5-23.9,1.1c-5.4,0.4-10.8,1.1-16.2,1.8
		c-5,0.7-10,1.5-14.9,2.6c-4,0.9-8,2.1-11.9,3.4c-2.5,0.8-5,1.8-7,3.8c-1,1-1,1.8,0,2.8c2.2,2.2,5,3.3,7.9,4.2
		c5.4,1.6,10.8,3,16.2,4.1c4.8,1,9.7,1.6,14.6,2.3C85.7,32.9,89.1,33.1,92.8,33.5z M42.9,75.7c0,0.8,0,1.7,0,2.6
		c0.1,3,1.2,5.2,4.1,6.5c3.7,1.8,7.5,3,11.5,3.9c4.4,1,8.8,1.8,13.3,2.6c4.6,0.8,9.1,1.5,13.8,1.9c6.3,0.6,12.6,1,19,1.3
		c21.5,1,42.9,0.5,64.3-2.1c4.6-0.6,9.2-1.3,13.8-2.2c3.8-0.7,7.6-1.6,11.4-2.7c3.7-1,7.4-2.2,10.6-4.3c0.8-0.6,1.9-1.4,2.1-2.2
		c0.5-2.1,0.5-4.3,0.7-6.7c-0.5,0.2-0.7,0.2-0.8,0.3c-3,1.9-6.3,3.3-9.8,4.2c-4.1,1.1-8.2,2.2-12.4,3.1c-3.8,0.8-7.6,1.5-11.4,2
		c-5.3,0.7-10.7,1.2-16,1.6c-7.1,0.5-14.2,1.1-21.3,1.3c-17.2,0.4-34.4,0-51.6-1.8c-6.9-0.7-13.8-1.8-20.6-2.9
		c-3.9-0.7-7.8-1.7-11.7-2.9C48.8,78.2,46,76.9,42.9,75.7z M70.3,185.9c9.3,1.5,18.6,2.4,18.6,2.4c10.8,1.1,21.6,1.6,32.4,1.5
		c11.5-0.1,23.1-0.6,34.6-1.2c5-0.2,10-0.9,15-1.6c5-0.7,10-1.7,15-2.6c5.8-1.1,11.5-2.7,16.9-5.2c1.5-0.7,3.3-1.5,3.8-3.2
		c0.5-1.8,0.5-3.8,0.7-6c-0.8,0.4-1.2,0.6-1.6,0.8c-1.9,0.9-3.7,1.8-5.6,2.5c-5.8,2.1-11.9,3.6-18,4.5c-6.7,1-13.4,2.1-20.2,2.7
		c-7.2,0.7-14.5,1.3-21.8,1.4c-11.5,0.2-23,0.2-34.5-0.2c-12.7-0.4-25.3-1.4-37.8-3.8c-2.6-0.5-5.3-0.8-7.9-1.5
		c-4.3-1.2-8.6-2.6-12.9-4c-1.4-0.5-2.7-1.3-4.1-2c0,1.5,0,3,0,4.4c0,1.7,1,2.7,2.3,3.6c3.4,2.1,7.1,3.2,10.9,4.3
		c1.3,0.4,2.7,0.7,4.1,1.1c0.5,0.1,1.2,0.3,2.1,0.5C62.3,184.4,66.1,185.2,70.3,185.9z M147.7,26.2c-16.5,3.2-32.8,3.1-49.3,0
		c0,2.1,0.1,4.2,0,6.3c0,1.1,0.4,1.4,1.4,1.5c3.1,0.1,6.3,0.4,9.4,0.4c10.6,0.1,21.1,0,31.7,0c2.3,0,4.5-0.2,6.8-0.4
		C147.7,31.4,147.7,28.8,147.7,26.2z M144.3,20.9c-14.2-2.7-28.4-2.7-42.5,0C115.9,23.5,130.1,23.5,144.3,20.9z"/>
	<path d="M121.8,46.6c9.4,0,18.9,0,28.3,0c6.7,0,12.2,6.2,10.9,13.2c-0.9,5-5.4,9.1-11,9.1c-3.8,0-7.6,0-11.5,0
		c-14.9,0-29.9,0-44.8,0c-4.4,0-7.9-1.8-10.1-5.6c-3.4-5.9-0.8-13.8,6-16c1.3-0.4,2.7-0.6,4-0.7C103.1,46.6,112.4,46.6,121.8,46.6z
		 M121.7,63.3c3.6,0,7.2,0,10.7,0c5.8,0,11.6,0,17.3,0c4.3,0,6.9-3.9,5.2-7.8c-1-2.3-3-3.2-5.5-3.2c-6.1,0-12.2,0.1-18.3,0.1
		c-12.2,0-24.3,0-36.5-0.1c-0.5,0-1,0-1.5,0c-4.2,0.3-6.5,3.9-4.9,7.8c0.8,2,2.9,3.3,5.4,3.3C103.1,63.3,112.4,63.3,121.7,63.3z"/>
</g>
</svg>
