<?xml version="1.0" encoding="utf-8"?>
<!-- Generator: Adobe Illustrator 22.0.1, SVG Export Plug-In . SVG Version: 6.00 Build 0)  -->
<svg version="1.1" id="Camada_1" xmlns="http://www.w3.org/2000/svg" xmlns:xlink="http://www.w3.org/1999/xlink" x="0px" y="0px"
	 viewBox="0 0 250 250" style="enable-background:new 0 0 250 250;" xml:space="preserve">
<g>
	<path d="M243,86.3c0,2.3,0,4.6,0,6.9c-0.1,0.4-0.3,0.8-0.4,1.3c-2.4,13-9.8,21.5-22.5,25.4c-1.4,0.4-1.5,1.2-1.5,2.3
		c0,6.5,0,13.1,0,19.6c0,0.9,0,1.9-0.3,2.7c-0.9,3.4-4,5.4-7.6,5c-3.4-0.4-5.9-3.3-6-7.1c-0.1-6.7-0.1-13.4,0-20
		c0-1.5-0.3-2.3-1.9-2.7c-4.4-1.2-8.3-3.5-11.8-6.5c-0.7-0.6-1.9-1-2.8-1c-10.5-0.1-21,0-31.6,0c-0.6,0-1.1,0.1-2,0.2
		c4.5,6,5.4,12.6,5.3,19.6c-0.1,21.3-0.1,42.7-0.1,64c0,0.9,0,1.8,0,2.9c1.1,0,2,0,2.9,0c21,0,42.1,0,63.1,0c6,0,11,2.3,14.2,7.4
		c1.2,1.9,1.8,4.2,2.7,6.3c0,5.7,0,11.4,0,17.1c-1.3,2.6-2.4,5.4-4.1,7.8c-2.2,3.1-5.8,4.4-9.3,5.5c-69.8,0-139.5,0-209.3,0
		c-2.1-1-4.4-1.7-6.4-2.9c-3.9-2.4-5.7-6.2-7-10.4c0-5.7,0-11.4,0-17.1c2.1-9.4,9.2-14,19.7-13.8c20.1,0.4,40.2,0.1,60.4,0.1
		c0.9,0,1.8,0,2.9,0c0-1.1,0-2,0-2.9c0-22.4,0-44.9,0-67.3c0-5.5,1.4-10.6,4.5-15.2c0.2-0.3,0.4-0.8,0.7-1.4c-11.5,0-22.8,0-34.1,0
		c-0.7,0-1.5,0.4-2,0.9c-3.6,3.2-7.6,5.5-12.2,6.7c-1.5,0.4-1.7,1.1-1.7,2.4c0,6.5,0.1,12.9,0,19.4c0,1.6-0.4,3.4-1.2,4.8
		c-1.4,2.7-4.7,3.8-7.6,3c-3.1-0.9-5-3.4-5-6.9c-0.1-6.6-0.1-13.2,0-19.8c0-1.8-0.5-2.5-2.2-3C18.7,116.2,11.9,109.3,8.5,99
		c-0.7-2-1-4.2-1.5-6.2c0-2,0-4,0-6c0.1-0.2,0.3-0.4,0.3-0.6c0.8-6.3,3.3-11.9,7.4-16.8c0.5-0.6,0.6-1.5,0.6-2.3
		c-0.5-6.4-1.1-12.8-1.7-19.2C13,39.9,12.2,32,11.6,24c-0.4-5,1.2-9.4,5.1-12.5c2.4-2,5.5-3,8.3-4.5c8.8,0,17.5,0,26.3,0
		c0.6,0.2,1.3,0.4,1.9,0.6c7.2,2.1,12.1,8.9,11.6,16.3c-0.5,6.9-1.2,13.8-1.8,20.6c-0.7,7.5-1.4,15-2,22.5c-0.2,1.8,0.4,3,2.5,3
		c12.1,0,24.3,0,36.4,0c1.8,0,2.6-1,2.4-2.8c-0.7-7.1-1.3-14.2-2-21.3c-0.6-7-1.3-13.9-1.9-20.9c-0.7-8.7,4.1-15.4,12.5-17.7
		c0.3-0.1,0.5-0.3,0.8-0.4c8.9,0,17.8,0,26.7,0c0.6,0.2,1.1,0.5,1.7,0.6c7.6,2.3,12.3,9.4,11.6,17.3c-1.3,14-2.6,28-3.9,41.9
		c-0.2,2.4,0.5,3.2,2.9,3.3c11.8,0,23.6,0,35.5,0c2.6,0,3.2-0.7,2.9-3.2c-1.3-14.1-2.6-28.1-3.9-42.2c-0.6-6.8,3.1-13.5,9.3-16.3
		c1.4-0.6,2.9-1,4.3-1.5c8.8,0,17.5,0,26.3,0c0.2,0.1,0.4,0.3,0.6,0.4c9.1,2.6,13.6,9.2,12.7,18.6c-1.2,12.5-2.3,25-3.6,37.5
		c-0.3,3.2-0.2,6,2.3,8.3c1,0.9,1.8,2.3,2.3,3.7C240.7,79,241.8,82.7,243,86.3z M212.4,107.1c0.7-0.1,1.9-0.1,3.1-0.4
		c7.6-1.6,13.1-8,13.6-15.7c0.5-7.7-4.1-14.6-11.4-17.3c-7.1-2.6-15.3-0.3-19.7,6c-2.2,3.1-4.8,4.3-8.6,4.3
		c-14.1-0.1-28.3-0.1-42.4,0c-3.5,0-6.1-1.2-8.2-4.1c-6.9-9.6-21-9.6-27.9,0c-2.1,2.9-4.7,4.1-8.2,4.1c-14.1-0.1-28.1-0.1-42.2,0
		c-3.7,0-6.4-1.1-8.5-4.3c-3.9-5.7-11.5-8.2-18.2-6.5c-7.2,1.9-12.3,8-12.9,15.4c-0.6,7,3.7,14.2,10.2,17.1c6.7,3,14.7,1.5,19.6-4
		c2.3-2.5,4.7-3.5,8.1-3.5c15.4,0.1,30.9,0.1,46.3,0c2.8,0,5,1,6.9,3c7.1,7.9,18.6,8,25.8,0.2c2-2.2,4.2-3.2,7.2-3.2
		c15.6,0.1,31.2,0.1,46.8,0c3,0,5.3,0.9,7.3,3.2C202.4,105.2,206.7,107.1,212.4,107.1z M124.9,229.2c33.3,0,66.7,0,100,0
		c3.9,0,4.3-0.3,4.3-4.4c0-2.4,0-4.8,0-7.1c0-4.8-0.2-5-4.9-5c-66.2,0-132.4,0-198.6,0c-0.6,0-1.2,0-1.8,0c-2.1,0-3.1,1-3,3.1
		c0.1,3.1,0,6.1,0,9.2c0,3.7,0.4,4.1,4.1,4.1C58.2,229.2,91.6,229.2,124.9,229.2z M146.1,198.8c0-0.6,0.1-0.9,0.1-1.3
		c0-23.2,0-46.4,0-69.6c0-3.6-1.5-6.5-4-9c-1.1-1.2-2.1-2-3.9-0.8c-1.2,0.8-2.8,1.4-4.3,1.7c-1.9,0.3-2.2,1.3-2.2,3
		c0.1,6.5,0,13.1,0,19.6c0,3.1-1.3,5.3-4.1,6.6c-4.7,2.1-9.6-1.3-9.7-6.7c-0.1-6.4-0.1-12.8,0-19.1c0-2-0.3-3.1-2.5-3.5
		c-1.6-0.3-3.1-1.3-4.7-1.8c-0.7-0.2-1.8-0.1-2.3,0.3c-3.2,2.7-4.9,6.1-4.9,10.5c0,22.7,0,45.3,0,68c0,0.7,0,1.5,0,2.3
		C118,198.8,131.9,198.8,146.1,198.8z M134.3,60.2c0.1-0.6,0.3-1,0.3-1.3c1.1-11.6,2.1-23.2,3.2-34.8c0.2-2.3-0.7-3.2-3.1-3.2
		c-6.2,0-12.4,0-18.6,0c-3.7,0-4.2,0.7-3.8,4.4c0.6,6.3,1.2,12.7,1.8,19c0.5,5.2,1,10.5,1.5,16C121.9,58.3,128.1,58.4,134.3,60.2z
		 M221.2,60.2c1.1-12.3,2.3-24.3,3.3-36.3c0.2-2.2-0.7-3-3-3.1c-6.6,0-13.2,0-19.8,0c-2.3,0-3.1,1-2.9,3.4
		c0.9,9.8,1.8,19.5,2.7,29.3c0.2,2.2,0.5,4.3,0.7,6.7C208.7,58.3,214.8,58.3,221.2,60.2z M47.5,60.2c0.1-0.7,0.3-1.2,0.3-1.6
		C48.9,47,49.9,35.4,51,23.8c0.2-2.1-0.7-2.9-3.1-2.9c-6.3,0-12.6,0-18.9,0c-3.3,0-3.8,0.5-3.6,3.7c0.6,7.3,1.3,14.5,1.9,21.8
		c0.4,4.6,0.9,9.1,1.3,13.9C35,58.4,41.1,58.3,47.5,60.2z"/>
</g>
</svg>
