<?xml version="1.0" encoding="UTF-8"?>
<svg width="661px" height="279px" viewBox="0 0 661 279" version="1.1" xmlns="http://www.w3.org/2000/svg" xmlns:xlink="http://www.w3.org/1999/xlink">
    <title>Bees_Parceiro_Logo_Black_RGB</title>
    <g id="Page-1" stroke="none" stroke-width="1" fill="none" fill-rule="evenodd">
        <g id="Bees_Parceiro_Logo_Black_RGB" fill="#000" fill-rule="nonzero">
            <path d="M47.9000322,18.6000229 C47.9000322,29.0512032 40.8544549,35.0122364 28.1579003,35.0122364 L18.0174777,35.0122364 L18.0174777,47.9024632 C18.0174777,50.5745779 15.8512965,52.7407591 13.1791818,52.7407591 L9.53930763,52.7407591 C6.86719293,52.7407591 4.70101172,50.5745779 4.70101172,47.9024632 L4.70101172,6.48418414 C4.70101172,3.81206944 6.86719293,1.64588823 9.53930763,1.64588823 L28.1580006,1.64588823 C40.8545552,1.64588823 47.9000322,7.60702165 47.9000322,18.6000229 Z M34.5069796,18.4454461 C34.5069796,13.9552989 31.9523513,11.7099247 26.0686066,11.7099247 L18.0174777,11.7099247 L18.0174777,25.2575542 L26.0686066,25.2575542 C31.9523513,25.2575542 34.5069796,23.0128816 34.5069796,18.4454461 Z M119.185528,41.2060371 L101.534194,41.2060371 L99.0255779,49.3300436 C98.3994514,51.3577873 96.5248811,52.7408593 94.4026069,52.7408593 L91.4085072,52.7408593 C88.0728748,52.7408593 85.7377818,49.4449237 86.8439788,46.2980516 L100.491853,7.47179196 C101.718744,3.98148248 105.015381,1.64598847 108.715001,1.64598847 L112.304753,1.64598847 C116.008783,1.64598847 119.308228,3.98689567 120.531811,7.48301933 L134.118636,46.3042667 C135.21962,49.4500362 132.884728,52.7408593 129.551902,52.7408593 L126.261981,52.7408593 C124.12868,52.7408593 122.247093,51.3436529 121.630289,49.3013737 L119.185528,41.2060371 Z M116.398233,32.1485547 L112.681872,19.9164324 L110.436398,11.8645015 L110.281821,11.8645015 L108.192527,19.8391439 L104.398076,32.1485547 L116.398233,32.1485547 L116.398233,32.1485547 Z M204.009131,34.0831713 L196.036092,34.0831713 L196.036092,47.9025634 C196.036092,50.5746781 193.869911,52.7408593 191.197797,52.7408593 L187.79059,52.7408593 C185.118475,52.7408593 182.952294,50.5746781 182.952294,47.9025634 L182.952294,6.48428438 C182.952294,3.81216969 185.118475,1.64598847 187.79059,1.64598847 L207.338348,1.64598847 C219.647758,1.64598847 226.615145,7.37515636 226.615145,17.9036251 C226.615145,25.3356446 223.131452,30.3676127 216.705786,32.6902754 L224.824379,45.2804707 C226.900541,48.5001203 224.589106,52.7408593 220.758166,52.7408593 L217.700511,52.7408593 C215.981921,52.7408593 214.392346,51.8292368 213.52443,50.3459204 L204.009131,34.0831713 Z M196.036092,24.6383445 L205.094377,24.6383445 C210.745454,24.6383445 213.221992,22.7028257 213.221992,18.1354904 C213.221992,13.6453433 210.745454,11.7099247 205.094377,11.7099247 L196.036092,11.7099247 L196.036092,24.6383445 Z M299.518185,53.5145456 C283.957748,53.5145456 274.435733,43.6832767 274.435733,27.1937747 C274.435733,10.7034709 284.035939,0.8714 299.441698,0.8714 C307.971494,0.8714 315.168541,3.68425783 319.023941,9.74333003 C320.638878,12.2813177 319.517143,15.6708816 316.727843,16.7974281 L314.228449,17.8068892 C311.972048,18.7182111 309.317075,17.8561092 308.190629,15.69895 C306.496498,12.4546403 303.854457,11.32248 299.905429,11.32248 C292.474212,11.32248 288.061353,16.7416923 288.061353,27.1936745 C288.061353,37.5667644 292.163454,43.063265 299.672662,43.063265 C304.021063,43.063265 306.897877,41.5470685 308.573261,38.3116805 C309.619011,36.2922571 311.962424,35.3086591 314.151161,35.9258638 L316.6285,36.6244671 C319.701292,37.4909796 321.121354,41.0549688 319.464013,43.7837215 C315.394893,50.4835559 308.201756,53.5145456 299.518185,53.5145456 Z M410.433901,47.2825518 L410.433901,47.9024632 C410.433901,50.5745779 408.26772,52.7407591 405.595605,52.7407591 L374.474731,52.7407591 C371.802617,52.7407591 369.636435,50.5745779 369.636435,47.9024632 L369.636435,6.48418414 C369.636435,3.81206944 371.802617,1.64588823 374.474731,1.64588823 L404.588449,1.64588823 C407.260564,1.64588823 409.426745,3.81206944 409.426745,6.48418414 L409.426745,7.1040955 C409.426745,9.7762102 407.260564,11.9423914 404.588449,11.9423914 L382.953002,11.9423914 L382.953002,22.3162833 L399.170039,22.3162833 C401.842154,22.3162833 404.008335,24.4824645 404.008335,27.1545792 L404.008335,27.1545792 C404.008335,29.8266939 401.842154,31.9928751 399.170039,31.9928751 L382.953002,31.9928751 L382.953002,42.4440554 L405.595605,42.4440554 C408.26772,42.4442559 410.433901,44.6104371 410.433901,47.2825518 Z M467.66022,52.7408593 L464.020346,52.7408593 C461.348231,52.7408593 459.18205,50.5746781 459.18205,47.9025634 L459.18205,6.48428438 C459.18205,3.81216969 461.348231,1.64598847 464.020346,1.64598847 L467.66022,1.64598847 C470.332335,1.64598847 472.498516,3.81216969 472.498516,6.48428438 L472.498516,47.9025634 C472.498516,50.5746781 470.332435,52.7408593 467.66022,52.7408593 Z M545.476639,34.0831713 L537.505204,34.0831713 L537.505204,47.9025634 C537.505204,50.5746781 535.339023,52.7408593 532.666909,52.7408593 L529.259702,52.7408593 C526.587587,52.7408593 524.421406,50.5746781 524.421406,47.9025634 L524.421406,6.48428438 C524.421406,3.81216969 526.587587,1.64598847 529.259702,1.64598847 L548.80746,1.64598847 C561.11687,1.64598847 568.084357,7.37515636 568.084357,17.9036251 C568.084357,25.3356446 564.600664,30.3676127 558.174998,32.6902754 L566.292789,45.2806711 C568.368651,48.5003208 566.057215,52.7408593 562.226375,52.7408593 L559.168119,52.7408593 C557.449529,52.7408593 555.859954,51.8292368 554.992038,50.3459204 L545.476639,34.0831713 Z M537.505104,24.6383445 L546.563489,24.6383445 C552.214566,24.6383445 554.691104,22.7028257 554.691104,18.1354904 C554.691104,13.6453433 552.214566,11.7099247 546.563489,11.7099247 L537.505104,11.7099247 L537.505104,24.6383445 Z M657.81753,27.1937747 C657.81753,43.6832767 648.373505,53.5145456 632.813168,53.5145456 C617.252731,53.5145456 607.729113,43.6832767 607.729113,27.1937747 C607.729113,10.7034709 617.252731,0.8714 632.813168,0.8714 C648.373505,0.8714 657.81753,10.7034709 657.81753,27.1937747 Z M621.354732,27.1937747 C621.354732,37.644955 625.380247,43.0633653 632.813068,43.0633653 C640.166095,43.0633653 644.191709,37.644955 644.191709,27.1937747 C644.191709,16.7417925 640.166195,11.3225803 632.813068,11.3225803 C625.380347,11.3225803 621.354732,16.7417925 621.354732,27.1937747 Z M313.094585,77.8025605 C318.23612,77.8025605 322.404783,81.9714243 322.404783,87.1128593 L322.404783,118.613659 C322.404783,123.756197 318.23612,127.923858 313.094585,127.923858 L180.363683,127.923858 L180.363683,87.112759 C180.363683,81.9712238 184.532346,77.8025605 189.673881,77.8025605 L313.094585,77.8025605 M313.094585,228.169159 L180.363683,228.169159 L180.363683,268.98126 C180.363683,274.122795 184.532346,278.291459 189.673881,278.291459 L313.094585,278.291459 C318.23612,278.291459 322.404783,274.122795 322.404783,268.98126 L322.404783,237.479357 C322.404783,232.337822 318.23602,228.169159 313.094585,228.169159 M297.358319,193.797861 L297.358319,162.295958 C297.358319,157.15342 293.189556,152.985759 288.048121,152.985759 L180.378419,152.985759 L180.378419,203.108059 L288.048121,203.108059 C293.189556,203.108059 297.358319,198.939396 297.358319,193.797861 M480.196985,77.8026607 L356.776382,77.8026607 C351.634847,77.8026607 347.466184,81.9714243 347.466184,87.1128593 L347.466184,127.923958 L480.197086,127.923958 C485.338621,127.923958 489.507284,123.756297 489.507284,118.613759 L489.507284,87.1129595 C489.507284,81.9714243 485.338521,77.8026607 480.196985,77.8026607 M480.196985,228.169159 L347.466083,228.169159 L347.466083,268.98126 C347.466083,274.122795 351.634747,278.291459 356.776282,278.291459 L480.196985,278.291459 C485.338521,278.291459 489.507184,274.122795 489.507184,268.98126 L489.507184,237.479357 C489.507184,232.337822 485.338521,228.169159 480.196985,228.169159 M464.444781,193.797861 L464.444781,162.295958 C464.444781,157.15342 460.276017,152.985759 455.134582,152.985759 L347.46488,152.985759 L347.46488,203.108059 L455.134582,203.108059 C460.276118,203.108059 464.444781,198.939396 464.444781,193.797861 M0.7586,268.980358 C0.7586,274.122895 4.92726333,278.290556 10.0687985,278.290556 L93.9077003,278.290556 C124.217797,278.290556 149.497931,256.766179 155.302583,228.168156 L0.7586,228.168156 L0.7586,268.980358 Z M514.568284,237.479057 L514.568284,268.979957 C514.568284,274.122494 518.737047,278.291158 523.878482,278.291158 L599.364419,278.291158 C629.674516,278.291158 654.95465,256.765778 660.758299,228.168858 L523.878382,228.168858 C518.736947,228.168858 514.568284,232.337521 514.568284,237.479057 M651.448401,77.8026607 L571.784378,77.8026607 C541.474381,77.8026607 516.194147,99.3280403 510.390598,127.923958 L651.448401,127.923958 C656.589937,127.923958 660.7586,123.756297 660.7586,118.614762 L660.7586,87.1128593 C660.7586,81.9714243 656.589937,77.8026607 651.448401,77.8026607 M93.9081013,152.985659 L0.759000978,152.985659 L0.759000978,203.108059 L155.301981,203.108059 C149.498332,174.511039 124.218198,152.985659 93.9081013,152.985659 M599.365622,152.992777 L510.3914,152.985559 C516.198258,181.579372 541.476186,203.100541 571.783275,203.100541 L660.7584,203.107859 C654.952645,174.514046 629.672511,152.992777 599.365622,152.992777 M80.7126303,77.8161937 L10.0701017,77.8026603 C4.92756406,77.8015581 0.758800489,81.9702214 0.758800489,87.1138617 L0.758800489,127.92075 L130.228151,127.92075 C130.228151,100.44376 108.112532,78.1414868 80.7126303,77.8161937" id="Shape"></path>
        </g>
    </g>
</svg>