<?xml version="1.0" encoding="utf-8"?>
<!-- Generator: Adobe Illustrator 22.0.1, SVG Export Plug-In . SVG Version: 6.00 Build 0)  -->
<svg version="1.1" id="Camada_1" xmlns="http://www.w3.org/2000/svg" xmlns:xlink="http://www.w3.org/1999/xlink" x="0px" y="0px"
	 viewBox="0 0 192 192" style="enable-background:new 0 0 192 192;" xml:space="preserve">
<g>
	<g>
		<path d="M188.5,106.8c-0.9-3.9-2-7.7-3.1-11.6c-2.6-8.5-9.8-12.7-18.6-10.8c-2.7,0.6-5.4,1.4-9.6,2.4c0.7-2.7,0.9-4.6,1.7-6.2
			c0.9-1.9,1.8-12.2-3.1-15.3c-2.2-1.4-5.1-1.1-7.6-0.8c-3.4,0.3-3.8,1.3-6,1c-3.4-0.5-3.2-3-7-4c-0.2-0.1-5.3-1.4-9,1
			c-0.7,0.4-1.1,0.8-2,1c-2,0.4-3.7-1.2-5-2c-3.8-2.3-9.1-1.4-12,0c-1.6,0.8-3.8,3.2-8,8c-3,3.4-3.2,3.9-4,4c-4.2,0.4-5.4-11-13-13
			c-2.2-0.6-5.9-0.6-9,1c-2.6,1.3-2.9,2.7-5,3c-3.3,0.5-4.3-2.6-8-3c-4.3-0.5-4.8,3.4-10,4c-5.4,0.6-7.8-3.2-12-1.3
			c-1.8,0.8-3.2,2.3-3.6,2.8c-3.4,3.8-3.7,8.3-1.8,13.1c0.7,1.7,0.8,3.6,1.2,5.5c-1.9-0.4-4.7-0.8-8-0.9c-6-0.3-9.2-0.5-12.2,1.3
			c-3.4,2-6,5.4-7.3,10.2c-1.1,3.7-2.1,7.4-3,11.1c-1.8,8.1,2.4,15.5,10.3,18.1c2.8,1,5.7,1.7,9.7,2.9c-3.4,5.9-6.9,11.8-10.3,17.6
			c0.9,5.7,4.6,9,10.1,10.5c7.1,1.9,14.2,3.8,21.2,5.7c7.6,2,15.1,4.2,22.7,6.1c5.3,1.3,10.4,0.9,14-4c3.5-4.7,3.2-9.5,0.5-14.5
			c-0.8-1.4-0.8-3.5-0.4-5.1c3.9-15,8-29.9,12.1-44.8c0.4-1.4,1.7-2.6,2.5-3.9c0.9,1.3,2.1,2.4,2.5,3.8c2.9,10.2,5.8,20.5,8.4,30.8
			c1.9,7.9,5.5,15.2,1.9,24.3c-3.4,8.7,6.1,15.8,16.4,13.2c14.7-3.8,29.3-7.9,43.9-11.7c5.5-1.5,9.2-4.8,10.2-10.4
			c0.9-5.6-1.9-9.5-6.4-12.5c-1.5-1-2.4-3-4.1-5.1c4-1.1,6.9-1.9,9.7-2.8C186.3,122.6,190.5,115.1,188.5,106.8z M19.4,120.5
			c-10-2.8-11.8-6.1-9-16c0.2-0.8,0.5-1.6,0.7-2.4c2.5-13.5,9-14.3,20.9-9c-0.5,1.6-1,3.3-1.5,4.9c-11-1.7-11.4-1.5-13.6,6.1
			c-2,7.1-1.4,8,8.1,12.2C24.9,121.8,24.7,122,19.4,120.5z M28,103.9c-0.5,1.9-0.9,3.5-1.5,5.7c-1.9-0.6-3.5-1.1-5.4-1.7
			c0.5-2,0.9-3.5,1.5-5.8C24.8,102.8,26.3,103.3,28,103.9z M68.5,162.1c-8.2-2.1-16.3-4.5-24.5-6.7c-6.2-1.7-12.5-3.3-18.8-5.1
			c-5.1-1.4-7.1-4.2-6.1-8.1c0.9-3.5,4.2-4.8,9-3.6c14.5,3.8,28.9,7.7,43.3,11.5c3.4,0.9,5.8,2.5,5.9,5.8
			C77.4,161.1,73.8,163.5,68.5,162.1z M74.7,144.8c-15.8-4.1-31-8.2-46.9-12.3c4.8-17.8,9.4-35.1,14.2-52.7c1.9,0.4,3.5,0.7,5.7,1.1
			c-0.4,1.9-0.6,3.7-1.1,5.3c-3,11.3-6.1,22.5-9,33.8c-1.6,6.2-0.2,8.6,5.9,10.3c6.4,1.8,12.8,3.6,19.3,5.2c5.7,1.5,8,0.1,9.6-5.5
			c3.5-12.8,7-25.7,10.6-39.2c2,0.5,3.6,0.8,6,1.3C84.1,109.7,79.5,127,74.7,144.8z M73.8,100.8c-2.7,9.9-5.2,19.3-7.9,29.2
			c-7.8-2.1-15.1-4.1-23.2-6.3c2.7-10,5.2-19.2,7.9-29.2C58.5,96.7,65.9,98.7,73.8,100.8z M52.5,88.6c0.5-2.1,0.9-3.8,1.4-5.9
			c7.8,2.1,15.1,4,22.9,6.1c-0.5,2-1,3.7-1.5,5.9C67.6,92.7,60.3,90.7,52.5,88.6z M87.5,85.1C71,82,55.3,75.1,38.5,73.2
			c0.4-3.8,3.4-5.9,7.5-4c4,1.9,7,1.7,10.4-1.2c1.4-1.1,4.9-1,6.7,0c3.4,1.7,6,1.8,9.2-0.4c6-4.2,12-2,14.8,4.8
			C88.8,76.7,90.4,80.7,87.5,85.1z M96.4,88.4c-3.2-4.4-2.2-7.5,2.8-10.2c2.2-1.2,4.2-3.6,5.2-5.9c2.8-6.7,8.9-9.1,14.8-4.8
			c3.2,2.3,5.9,2.6,9.1,0.3c2.7-1.9,5.3-1.7,7.7,0.6c2.8,2.7,5.7,2.7,9.1,1c4.6-2.2,7-0.8,8.5,3.8c-3.4,0.5-7,0.6-10.4,1.5
			c-12.7,3.3-25.4,6.8-38,10.3C102.3,86,99.5,87.3,96.4,88.4z M141.1,94.4c2.7,9.8,5.2,19.3,8,29.3c-8.2,2.2-15.5,4.2-23.4,6.3
			c-2.6-9.8-5.2-19.1-7.9-29.2C125.5,98.7,133,96.7,141.1,94.4z M113.4,89.3c9.2-2.5,16.6-4.5,24.4-6.6c0.6,2,1.1,3.5,1.8,5.8
			c-7.3,2-14.2,4.1-21.3,5.6C117.2,94.3,115.6,91.5,113.4,89.3z M108,111.5c-1.3-4.8-2.4-9.7-4-14.4c-1.5-4.4-0.5-6.3,4.8-6
			c3.1,11.3,6.2,22.9,9.4,34.4c0.5,1.8,0.8,3.6,1.4,5.3c1.5,4.6,4,6.1,8.8,4.9c7.1-1.8,14.2-3.7,21.2-5.7c4.8-1.4,6.3-4.2,5.1-9.1
			c-3.1-11.9-6.3-23.8-9.5-35.7c-0.3-1.2-0.5-2.5-0.9-4c1.8-0.6,3.4-1.1,5.5-1.8c4.8,17.6,9.5,35,14.3,53
			c-15.8,4.1-31.2,8.2-47.1,12.3C113.8,133.3,110.9,122.4,108,111.5z M162.9,104.5c2-0.5,3.7-1,5.7-1.5c0.6,1.9,1,3.4,1.6,5.3
			c-2,0.6-3.7,1.1-5.6,1.6C164,108,163.5,106.5,162.9,104.5z M173.1,145.7c-1,0.9-2.5,3.3-4.6,4c-15.3,4.4-30.8,8.5-46.2,12.6
			c-3.7,1-6.8-0.4-7.8-4.3c-1-3.9,1.1-6.5,4.8-7.5c15.2-4.1,30.5-8.2,45.8-12.1C169.7,137.2,173.2,140,173.1,145.7z M167.6,121.8
			c-0.5-2-1-3.6-1.5-5.2c10.9-5,11.2-5.5,8.6-13.8c-1.9-6.2-2.7-6.5-13.4-4.7c-0.5-1.6-1-3.3-1.7-5.4c2.8-0.8,4.8-1.5,6.9-2
			c7.4-1.9,11.4,0.4,13.5,7.8c0.8,2.9,1.6,5.8,2.3,8.7c1.6,6.6-0.6,10.6-7,12.6C173,120.5,170.6,121,167.6,121.8z"/>
		<path d="M128.9,122.6c-0.5-2.4-0.9-3.8-1.3-5.6c1.6-0.6,3.1-1.1,5.1-1.8c0.6,2,1.1,3.6,1.8,5.8C132.6,121.5,130.9,122,128.9,122.6
			z"/>
		<path d="M135.5,102.1c0.6,1.8,1.1,3.3,1.8,5.2c-1.9,0.6-3.5,1.1-5.5,1.7c-0.5-2-0.9-3.5-1.4-5.2
			C132.2,103.1,133.7,102.7,135.5,102.1z"/>
		<path d="M56.7,115.1c2.1,0.7,3.6,1.2,5.4,1.8c-0.5,1.9-0.9,3.5-1.5,5.7c-1.9-0.6-3.5-1.1-5.4-1.7
			C55.6,118.9,56.1,117.4,56.7,115.1z"/>
		<path d="M52.7,101.1c2.1,0.7,3.6,1.2,5.4,1.8c-0.5,1.9-0.9,3.5-1.5,5.7c-1.9-0.6-3.5-1.1-5.4-1.7
			C51.6,104.9,52.1,103.4,52.7,101.1z"/>
	</g>
	<path d="M31,52.3c0-1-0.2-4.6-2.8-7.8c-3.5-4.1-8.4-4.2-9.2-4.2c1.2-0.1,4.7-0.7,7.8-3.5c3.5-3.3,4.1-7.4,4.2-8.5
		c0,0.8,0.1,5,3.5,8.5c3.4,3.4,7.6,3.5,8.5,3.5c-0.8,0-5,0.1-8.5,3.5C34,44.5,31,47.5,31,52.3z"/>
	<path d="M154,47.3c0-1-0.2-4.6-2.8-7.8c-3.5-4.1-8.4-4.2-9.2-4.2c1.2-0.1,4.7-0.7,7.8-3.5c3.5-3.3,4.1-7.4,4.2-8.5
		c0,0.8,0.1,5,3.5,8.5c3.4,3.4,7.6,3.5,8.5,3.5c-0.8,0-5,0.1-8.5,3.5C157,39.5,154,42.5,154,47.3z"/>
</g>
</svg>
